<?xml version="1.0" standalone="no"?>
<!DOCTYPE svg PUBLIC "-//W3C//DTD SVG 20010904//EN"
 "http://www.w3.org/TR/2001/REC-SVG-20010904/DTD/svg10.dtd">
<svg version="1.0" xmlns="http://www.w3.org/2000/svg"
 width="403.000000pt" height="403.000000pt" viewBox="0 0 403.000000 403.000000"
 preserveAspectRatio="xMidYMid meet">
<metadata>
Created by potrace 1.11, written by Peter Selinger 2001-2013
</metadata>
<g transform="translate(0.000000,403.000000) scale(0.100000,-0.100000)"
fill="#000000" stroke="none">
<path d="M1915 3772 c-43 -2 -167 -18 -225 -28 -19 -3 -77 -17 -127 -30 -552
-143 -1013 -563 -1218 -1109 -28 -75 -72 -237 -81 -295 -3 -19 -7 -41 -9 -48
-8 -23 -19 -196 -19 -292 2 -330 92 -643 269 -930 32 -52 61 -97 64 -100 4 -3
33 -39 66 -80 515 -644 1427 -849 2170 -486 544 266 912 775 995 1377 14 102
17 279 7 399 -9 105 -15 143 -40 251 -85 362 -300 710 -587 950 -36 30 -67 57
-70 60 -17 22 -213 140 -305 184 -181 88 -407 153 -591 171 -71 6 -241 10
-299 6z m280 -47 c148 -15 252 -37 385 -82 183 -61 329 -138 490 -256 96 -71
261 -229 315 -302 17 -22 33 -42 36 -45 15 -12 110 -162 147 -230 76 -142 157
-369 176 -495 3 -22 8 -51 11 -65 18 -85 23 -281 12 -415 -11 -124 -17 -162
-48 -282 -272 -1064 -1439 -1615 -2439 -1151 -351 162 -671 481 -834 829 -138
297 -192 600 -162 924 6 68 11 102 21 155 3 14 7 35 9 47 29 149 162 476 222
544 8 8 14 19 14 23 0 4 32 51 72 104 234 316 590 557 966 651 42 11 93 22
112 25 19 3 46 8 60 11 14 3 66 8 115 11 50 4 91 8 93 9 4 4 158 -3 227 -10z"/>
<path d="M1879 3695 c-2 -2 -28 -6 -58 -9 -195 -22 -359 -68 -541 -154 -420
-198 -745 -568 -894 -1017 -54 -161 -78 -314 -79 -505 -2 -211 5 -277 49 -454
162 -647 725 -1162 1379 -1262 22 -3 65 -10 95 -15 55 -8 353 -4 420 6 556 82
1036 423 1290 918 87 169 141 342 174 552 14 88 15 382 2 465 -63 391 -224
709 -496 980 -253 252 -565 412 -925 476 -78 14 -407 29 -416 19z m346 -89
c414 -67 748 -243 1005 -532 53 -59 120 -141 120 -147 0 -2 21 -35 46 -73 92
-137 185 -366 218 -539 9 -44 18 -93 22 -110 10 -51 13 -337 4 -395 -5 -30
-11 -71 -13 -90 -3 -19 -14 -73 -25 -120 -140 -584 -602 -1050 -1192 -1201
-133 -34 -257 -47 -425 -44 -88 2 -173 6 -190 9 -16 4 -57 11 -90 17 -95 16
-282 77 -383 125 -687 329 -1054 1061 -907 1807 39 193 131 410 250 587 62 92
85 121 164 205 262 279 629 462 1003 501 35 3 64 8 66 9 6 5 286 -3 327 -9z"/>
<path d="M1947 3554 c-1 -1 -39 -4 -84 -8 -45 -3 -87 -8 -95 -10 -7 -3 -29 -7
-48 -10 -102 -15 -318 -92 -430 -153 -385 -209 -655 -544 -775 -960 -14 -46
-27 -105 -31 -131 -3 -26 -8 -49 -9 -53 -8 -11 -19 -159 -19 -244 0 -282 84
-590 220 -803 19 -29 34 -55 34 -57 0 -3 27 -40 59 -82 305 -399 758 -626
1251 -627 147 0 254 13 397 49 699 178 1189 821 1177 1546 -4 236 -56 451
-162 668 -231 476 -704 809 -1232 867 -61 6 -247 13 -253 8z m238 -48 c61 -7
94 -12 193 -32 51 -10 190 -58 265 -91 452 -199 785 -614 882 -1098 43 -218
38 -454 -17 -670 -120 -479 -458 -866 -917 -1049 -262 -105 -506 -133 -809
-92 -158 21 -428 121 -547 202 -20 13 -38 24 -41 24 -14 0 -177 133 -245 200
-207 205 -346 453 -414 743 -110 469 11 961 328 1335 38 45 97 106 130 135 33
28 65 58 72 64 7 7 55 41 107 76 296 201 652 290 1013 253z"/>
<path d="M1943 3398 c-33 -9 -82 -58 -84 -86 -7 -75 17 -119 75 -141 49 -19
107 -2 136 39 67 94 -16 218 -127 188z"/>
<path d="M2270 3348 c-90 -33 -113 -144 -43 -204 15 -13 30 -24 33 -25 3 0 16
-2 29 -5 63 -11 127 40 135 108 9 80 -81 153 -154 126z"/>
<path d="M1611 3304 c-56 -47 -60 -123 -10 -174 94 -94 242 6 193 130 -28 71
-124 94 -183 44z"/>
<path d="M2150 3025 c0 -7 16 -58 36 -112 19 -54 42 -118 51 -143 21 -63 211
-596 230 -645 8 -22 105 -292 214 -600 110 -308 203 -563 207 -567 4 -4 40 25
80 65 l72 73 -175 389 c-185 409 -183 406 -238 525 -19 41 -75 165 -125 275
-86 192 -112 248 -167 370 -14 30 -37 81 -51 113 -14 31 -35 77 -46 102 -11
25 -33 73 -49 108 -28 62 -39 75 -39 47z"/>
<path d="M1756 2968 c-10 -24 -29 -67 -42 -96 -13 -29 -24 -54 -24 -57 0 -2
-13 -32 -29 -67 -16 -35 -61 -139 -101 -233 -40 -93 -80 -188 -90 -210 -10
-22 -38 -87 -63 -145 -25 -58 -138 -321 -251 -584 l-207 -480 73 -73 c48 -48
75 -69 79 -60 6 11 85 242 424 1247 79 234 171 506 204 604 34 99 61 183 61
188 0 22 -18 4 -34 -34z"/>
<path d="M1969 2908 c0 -29 -2 -75 -4 -103 -2 -45 -6 -128 -20 -510 -3 -60 -7
-166 -10 -235 -6 -137 -12 -288 -20 -510 -6 -164 -13 -346 -20 -500 -3 -58 -7
-176 -10 -262 l-6 -158 101 0 101 0 -6 183 c-3 100 -7 225 -10 277 -2 52 -7
158 -10 235 -10 263 -15 380 -20 490 -2 61 -7 184 -10 275 -4 91 -8 203 -10
250 -2 47 -7 164 -11 260 -3 96 -8 202 -9 235 -2 33 -3 75 -4 93 -2 53 -21 36
-22 -20z"/>
</g>
</svg>
